<svg xmlns="http://www.w3.org/2000/svg" xmlns:svg="http://www.w3.org/2000/svg" id="svg11" width="10" height="10" fill="none" version="1.1" viewBox="0 0 10 10"><defs id="defs9"><linearGradient id="paint0_linear_3248_24290" x1="4.5" x2="4.5" y1="0" y2="7" gradientUnits="userSpaceOnUse"><stop id="stop4" stop-color="#D284CF"/><stop id="stop6" offset="1" stop-color="#6C96EA"/></linearGradient></defs><circle style="fill:#0287cb;fill-opacity:1;stroke-width:9.89859;stroke-linecap:round;stroke-linejoin:round;stop-color:#000" id="circle71289" cx="5" cy="5" r="5"/><path id="path71291" style="fill:#fff;stroke:none;stroke-width:.999999" d="m 7.6185994,2.5000091 c -0.0472,0.06341 -0.0522,0.164546 -0.0851,0.237646 -0.0697,0.154798 -0.16722,0.301613 -0.28966,0.420085 -0.31209,0.302003 -0.71597,0.4905 -1.12418,0.624875 -0.28191,0.09282 -0.57188,0.152535 -0.84088,0.282688 -0.23756,0.114954 -0.47637,0.264369 -0.63297,0.482072 -0.124,0.172353 -0.16609,0.404932 -0.18128,0.612373 -0.02,0.27279 -0.0134,0.552319 0.0322,0.8226 0.0234,0.138891 0.0744,0.273413 0.10378,0.411297 0.0338,0.158853 0.0691,0.321154 0.056,0.484429 -0.009,0.115978 -0.0667,0.228944 -0.0514,0.347315 0.0125,0.09703 0.0626,0.244326 0.18931,0.215747 0.0721,-0.01628 0.10241,-0.09528 0.11013,-0.160906 0.0169,-0.144303 0,-0.285575 0,-0.429575 0,-0.403931 -0.0454,-0.813619 -0.0838,-1.215623 -0.02,-0.210256 -0.0731,-0.439091 -0.0309,-0.648938 0.067,-0.332731 0.36894,-0.545231 0.654,-0.687759 0.58356,-0.291785 1.27619,-0.352491 1.828,-0.707901 0.32881,-0.211791 0.69037,-0.728813 0.34731,-1.090425 z m 0.18375,0.527859 c -0.0423,0.01028 -0.0587,0.105035 -0.078,0.139363 -0.0729,0.129962 -0.17077,0.234944 -0.2538,0.356463 -0.0514,0.07527 0.0284,0.244471 0.0291,0.338181 0.24984,-0.02559 0.42672,-0.255141 0.42953,-0.49356 0,-0.09442 -0.0112,-0.188409 -0.0528,-0.274197 -0.0131,-0.02706 -0.0361,-0.07551 -0.0741,-0.06625 z m -0.47885,0.605666 c -0.0594,0.0094 -0.12659,0.07684 -0.17106,0.101644 -0.18772,0.104747 -0.3935,0.1744 -0.59409,0.24939 -0.0477,0.01784 -0.19407,0.04324 -0.21651,0.09007 -0.0344,0.07195 0.042,0.225538 0.057,0.299079 0.0206,0.100375 -0.0156,0.169478 -0.0324,0.265053 0.32253,-0.125088 0.74656,-0.243169 0.97234,-0.520978 0.089,-0.109544 0.18166,-0.358388 0.0405,-0.470573 -0.0169,-0.0135 -0.036,-0.01681 -0.0558,-0.01369 z m 0.45044,0.231166 c -0.24407,0.02153 -0.36494,0.296594 -0.51097,0.463316 -0.0406,0.04634 -0.09,0.174575 0.0175,0.17985 0.18081,0.0089 0.44319,-0.155803 0.51291,-0.31695 0.0269,-0.06176 0.10537,-0.337229 -0.0194,-0.326216 z m -1.53547,0.234812 c -0.29485,0.06759 -0.5985,0.201016 -0.86832,0.335923 -0.14021,0.0701 -0.2894,0.147468 -0.38459,0.276462 -0.12125,0.164344 -0.143,0.378878 -0.11809,0.57582 0.0935,-0.04284 0.17193,-0.123232 0.26506,-0.17131 0.22084,-0.114003 0.45322,-0.194979 0.68547,-0.281816 0.14384,-0.05376 0.36244,-0.097 0.46128,-0.223378 0.11144,-0.142447 0.0403,-0.372757 -0.0408,-0.511701 z m 1.36247,0.376744 c -0.0225,-0.004 -0.05,-0.004 -0.0829,6.25e-4 -0.0787,0.01134 -0.17846,0.0478 -0.2134,0.125225 -0.03,0.06621 -0.0116,0.131788 -0.0627,0.191901 -0.075,0.08776 -0.18763,0.120968 -0.27031,0.196812 -0.025,0.02303 -0.0874,0.154563 -0.0188,0.160157 0.0523,0.0043 0.1223,-0.02909 0.17231,-0.04351 0.17497,-0.05049 0.36647,-0.111694 0.47491,-0.267722 0.0806,-0.116034 0.15903,-0.335863 0,-0.363594 z m -0.58712,0.01144 c -0.0827,0.0019 -0.17032,0.03282 -0.2361,0.06084 -0.14559,0.06201 -0.31853,0.122007 -0.47528,0.145066 l 0.0134,0.246782 -0.0866,0.201084 c 0.2666,0 0.61522,-0.100384 0.81347,-0.284163 0.0702,-0.06508 0.24222,-0.246228 0.10872,-0.334728 -0.0403,-0.02669 -0.0881,-0.03601 -0.13768,-0.03488 z m -0.85617,0.350957 c -0.0368,-0.0046 -0.0798,0.0068 -0.11112,0.01562 -0.10697,0.03 -0.21603,0.06133 -0.3199,0.10051 -0.20466,0.07718 -0.39944,0.172159 -0.5941,0.271172 -0.0797,0.04051 -0.20097,0.09088 -0.24734,0.171456 -0.0509,0.08846 -0.006,0.267219 0.0281,0.356432 0.18419,-0.08599 0.35638,-0.201375 0.53925,-0.291726 0.12347,-0.06099 0.25031,-0.11364 0.37475,-0.172418 0.12628,-0.05965 0.29322,-0.135507 0.3696,-0.257919 0.03,-0.04791 0.0578,-0.147178 -0.005,-0.182541 -0.0103,-0.0058 -0.0219,-0.0091 -0.0341,-0.01059 z m -1.76546,0.174856 c -0.0748,0.03489 -0.13407,0.115765 -0.19194,0.17365 -0.1271,0.127075 -0.25263,0.256028 -0.37747,0.385313 -0.38219,0.395872 -0.77809,0.779388 -1.16722,1.168494 -0.13709,0.1371 -0.2745,0.273872 -0.41128,0.4113 -0.055,0.05529 -0.14772,0.126397 -0.17366,0.201072 h 1.69091 0.51181 l 0.26507,-0.0091 -0.0144,-0.265068 0.06,-0.246779 -1.16994,-0.02744 c 0.19331,-0.274463 0.47082,-0.509495 0.69619,-0.758616 0.0766,-0.08467 0.2089,-0.178335 0.255,-0.283691 0.0343,-0.0785 -0.0122,-0.22585 -0.0181,-0.310403 -0.0103,-0.149704 0.0385,-0.291263 0.0449,-0.43872 z m 2.37637,0.06844 c -0.0701,3.12e-4 -0.14684,0.04382 -0.21021,0.06993 -0.10641,0.04385 -0.26923,0.04095 -0.32976,0.154143 -0.0297,0.05548 -0.0234,0.12361 -0.0427,0.182754 -0.0194,0.05924 -0.0598,0.107384 -0.0823,0.164481 -0.0106,0.02666 -0.005,0.05078 0.0256,0.05724 0.0601,0.01263 0.14297,-0.01765 0.20053,-0.03365 0.174,-0.04837 0.318,-0.09639 0.41631,-0.261185 0.0333,-0.05585 0.1701,-0.334553 0.0225,-0.333712 z m 0.49356,0.06473 c -0.26,0 -0.32203,0.196372 -0.47684,0.360006 -0.0481,0.05089 -0.12162,0.07166 -0.16684,0.123469 -0.0225,0.02575 -0.0263,0.06067 0.0134,0.06749 0.22681,0.03872 0.51347,-0.06325 0.675,-0.219575 0.11887,-0.115053 0.18906,-0.331394 -0.0449,-0.331394 z m -1.26112,0.161438 c -0.0868,0.008 -0.18466,0.07058 -0.25609,0.105181 -0.16091,0.0779 -0.3166,0.164669 -0.47528,0.246781 -0.0908,0.04697 -0.20628,0.09214 -0.28166,0.162016 -0.0719,0.06667 -0.0806,0.167216 -0.0383,0.251641 0.16768,-0.03844 0.33403,-0.108034 0.49356,-0.171831 0.11381,-0.04552 0.22678,-0.091 0.33816,-0.142347 0.12065,-0.05562 0.26672,-0.12666 0.32778,-0.252498 0.0347,-0.0715 0.0263,-0.187737 -0.0718,-0.198768 -0.0119,-0.0012 -0.0241,-0.0012 -0.0364,-1.56e-4 z m 0.3811,0.423378 c -0.0403,-1.04e-4 -0.0828,0.0072 -0.1071,0.01072 -0.0827,0.01181 -0.20244,0.02994 -0.26122,0.09582 -0.0275,0.03094 -0.038,0.07459 -0.0635,0.107737 -0.0309,0.04044 -0.0698,0.06939 -0.0866,0.118813 0.17775,0.06707 0.39619,0.04263 0.52928,-0.100579 0.0352,-0.03785 0.11481,-0.142099 0.0825,-0.198484 -0.015,-0.02638 -0.0531,-0.03393 -0.0934,-0.03403 z m 0.52018,0.02038 c -0.0393,-2.08e-4 -0.0816,0.0086 -0.10628,0.01372 -0.17822,0.03692 -0.30187,0.182525 -0.35647,0.353834 0.15038,0.04445 0.36838,-0.02731 0.47444,-0.137447 0.0398,-0.04138 0.10456,-0.1267 0.0776,-0.189528 -0.0134,-0.03109 -0.0499,-0.04035 -0.0892,-0.04058 z m -1.09344,0.07992 c -0.0927,-0.0036 -0.17753,0.08131 -0.25587,0.11869 -0.13697,0.06535 -0.28766,0.102863 -0.42959,0.155938 -0.0483,0.01806 -0.11107,0.02806 -0.15285,0.05941 -0.0576,0.04318 -0.0213,0.161763 0.0433,0.176316 0.0733,0.0165 0.1556,-0.0025 0.22835,-0.01475 0.18765,-0.03126 0.3739,-0.08501 0.52084,-0.211972 0.0467,-0.04032 0.20091,-0.27765 0.0458,-0.283638 z m 0.26778,0.348747 c -0.0401,-0.0022 -0.0811,0.0016 -0.11237,0.0055 -0.15316,0.02016 -0.18519,0.181066 -0.22847,0.308128 -0.0346,0.10141 -0.0529,0.204578 0.0914,0.190372 0.12772,-0.01256 0.29085,-0.08081 0.36335,-0.190372 0.0496,-0.07496 0.0831,-0.225706 -0.007,-0.2857 -0.0275,-0.01819 -0.0665,-0.02587 -0.10659,-0.02794 z m 0.32572,0.03334 c -0.0228,0.0022 -0.0437,0.0105 -0.0595,0.02697 -0.0692,0.07201 -0.0266,0.200072 -0.0905,0.28076 -0.0531,0.06695 -0.1409,0.119218 -0.15096,0.210215 0.20737,-6.25e-4 0.50603,-0.163828 0.46406,-0.411284 -0.0106,-0.06201 -0.0949,-0.112881 -0.1631,-0.106656 z m -0.88593,0.09098 c -0.12353,0.01516 -0.24778,0.05269 -0.36563,0.09183 -0.0484,0.01609 -0.10631,0.02772 -0.14428,0.06404 -0.0599,0.05732 -0.0805,0.247663 0,0.29826 0.0404,0.025 0.13378,0.01222 0.17968,0.0078 0.14404,-0.01372 0.31416,-0.04654 0.4041,-0.172126 0.0807,-0.112603 0.11225,-0.312847 -0.075,-0.28985 z m 0.24293,0.431637 c -0.063,0.0046 -0.12378,0.02384 -0.15475,0.06127 -0.0339,0.041 -0.0382,0.100038 -0.0691,0.144275 -0.0437,0.06242 -0.10613,0.116625 -0.14319,0.18281 -0.0433,0.0772 -0.0422,0.226643 -0.0222,0.310749 0.13053,-0.03291 0.19516,-0.145543 0.1645,-0.2742 0.14582,-0.02716 0.30744,-0.04472 0.40288,-0.173662 0.0524,-0.07085 0.0871,-0.172844 -0.01,-0.224447 -0.04,-0.02128 -0.10531,-0.03138 -0.16832,-0.02678 z m -0.43487,0.07107 c -0.0888,0.0105 -0.28357,0.0032 -0.34091,0.08062 -0.059,0.07958 -0.007,0.195834 0,0.282353 0.008,0.08137 -0.0454,0.165022 -0.0228,0.245819 0.0213,0.07688 0.18916,0.08962 0.25303,0.08154 0.17885,-0.02263 0.0431,-0.254376 0.0711,-0.353954 0.01,-0.0358 0.0561,-0.05872 0.0803,-0.08464 0.0865,-0.09245 0.15029,-0.274457 -0.0417,-0.251735 z"/></svg>