<?xml version="1.0" encoding="UTF-8" standalone="no"?>
<svg
   id="Layer_2_00000066492738654833613000000013880575269428417952_"
   width="917.94"
   height="917.94"
   x="0"
   y="0"
   version="1.1"
   viewBox="0 0 917.94 917.94"
   xml:space="preserve"
   sodipodi:docname="logo.svg"
   inkscape:version="1.2.2 (b0a8486541, 2022-12-01)"
   xmlns:inkscape="http://www.inkscape.org/namespaces/inkscape"
   xmlns:sodipodi="http://sodipodi.sourceforge.net/DTD/sodipodi-0.dtd"
   xmlns="http://www.w3.org/2000/svg"
   xmlns:svg="http://www.w3.org/2000/svg"><defs
     id="defs3431" /><sodipodi:namedview
     id="namedview3429"
     pagecolor="#505050"
     bordercolor="#ffffff"
     borderopacity="1"
     inkscape:showpageshadow="0"
     inkscape:pageopacity="0"
     inkscape:pagecheckerboard="1"
     inkscape:deskcolor="#d1d1d1"
     showgrid="false"
     inkscape:zoom="0.10839489"
     inkscape:cx="1397.6674"
     inkscape:cy="1494.5355"
     inkscape:window-width="1280"
     inkscape:window-height="923"
     inkscape:window-x="1920"
     inkscape:window-y="0"
     inkscape:window-maximized="1"
     inkscape:current-layer="g32572" /><style
     id="style10974"
     type="text/css" /><g
     id="g32572"
     transform="matrix(0.46446191,0,0,0.4644773,7042.2744,-1083.3269)"
     style="stroke-width:2.15299"><ellipse
       style="fill:#eda93a;fill-opacity:1;stroke-width:21.3116;stroke-linecap:round;stroke-linejoin:round;stop-color:#000000"
       id="circle71289"
       cx="-14174.046"
       cy="3320.5"
       rx="988.17578"
       ry="988.14301"
       inkscape:export-filename="logo.png"
       inkscape:export-xdpi="96.215431"
       inkscape:export-ydpi="96.215431" /><path
       id="path71291"
       style="fill:#ffffff;stroke:none;stroke-width:2.15299"
       d="m -13656.521,2826.4299 c -9.331,12.5322 -10.311,32.5193 -16.823,46.9661 -13.777,30.5922 -33.048,59.6069 -57.247,83.0206 -61.678,59.6843 -141.499,96.9368 -222.176,123.4933 -55.718,18.343 -113.022,30.1452 -166.187,55.867 -46.95,22.7182 -94.148,52.2468 -125.097,95.2713 -24.505,34.062 -32.824,80.0261 -35.831,121.0222 -3.948,53.9113 -2.653,109.154 6.363,162.5696 4.633,27.4485 14.705,54.0342 20.514,81.2838 6.688,31.3939 13.653,63.4691 11.057,95.7369 -1.85,22.9209 -13.185,45.2461 -10.159,68.6397 2.472,19.1763 12.377,48.2856 37.418,42.6378 14.255,-3.2178 20.236,-18.8306 21.761,-31.7998 3.337,-28.5184 0,-56.4378 0,-84.8965 0,-79.8281 -8.964,-160.794 -16.56,-240.2416 -3.953,-41.5527 -14.452,-86.7772 -6.119,-128.2486 13.237,-65.7575 72.918,-107.7533 129.257,-135.9213 115.331,-57.665 252.217,-69.6622 361.276,-139.9011 64.987,-41.8561 136.442,-144.0344 68.644,-215.4994 z m 36.318,104.3204 c -8.356,2.0317 -11.597,20.7576 -15.412,27.5417 -14.414,25.6845 -33.751,46.4317 -50.158,70.4473 -10.168,14.8766 5.617,48.3147 5.741,66.8346 49.379,-5.0583 84.334,-50.4234 84.894,-97.5416 0,-18.6594 -2.228,-37.2353 -10.446,-54.1895 -2.596,-5.348 -7.132,-14.922 -14.648,-13.0925 z m -94.636,119.6965 c -11.75,1.8592 -25.021,15.1869 -33.808,20.088 -37.102,20.7007 -77.77,34.4663 -117.415,49.2865 -9.432,3.5267 -38.355,8.5463 -42.786,17.7995 -6.808,14.2198 8.294,44.573 11.263,59.1068 4.078,19.8369 -3.088,33.4936 -6.411,52.382 63.744,-24.7207 147.547,-48.057 192.169,-102.9603 17.592,-21.6487 35.902,-70.8278 8.012,-92.9986 -3.337,-2.668 -7.109,-3.3225 -11.024,-2.7048 z m 89.024,45.685 c -48.236,4.2551 -72.125,58.6158 -100.99,91.5649 -8.021,9.1581 -17.783,34.5008 3.462,35.5434 35.734,1.754 87.589,-30.7911 101.367,-62.6387 5.311,-12.2052 20.824,-66.6457 -3.83,-64.4696 z m -303.465,46.4058 c -58.27,13.3578 -118.286,39.7264 -171.608,66.3881 -27.713,13.854 -57.199,29.1437 -76.011,54.6365 -23.965,32.4791 -28.262,74.8774 -23.339,113.7988 18.477,-8.4668 33.981,-24.3541 52.386,-33.8559 43.646,-22.5303 89.573,-38.5332 135.471,-55.6949 28.43,-10.6248 71.632,-19.1701 91.166,-44.1461 22.024,-28.1513 7.964,-73.667 -8.065,-101.1265 z m 269.274,74.4553 c -4.45,-0.784 -9.876,-0.7902 -16.383,0.1243 -15.556,2.2416 -35.271,9.4464 -42.174,24.748 -5.928,13.0848 -2.285,26.0449 -12.401,37.9251 -14.819,17.3443 -37.082,23.9066 -53.422,38.8956 -4.943,4.5515 -17.277,30.5458 -3.71,31.6516 10.345,0.8461 24.175,-5.7501 34.057,-8.5993 34.577,-9.9785 72.425,-22.0742 93.856,-52.9098 15.944,-22.9318 31.433,-66.3761 0,-71.8566 z m -116.038,2.2607 c -16.345,0.3681 -33.66,6.4858 -46.663,12.0231 -28.774,12.254 -62.951,24.1117 -93.929,28.669 l 2.654,48.7713 -17.11,39.7398 c 52.691,0 121.593,-19.8388 160.77,-56.1587 13.873,-12.8625 47.873,-48.6617 21.489,-66.1519 -7.955,-5.2739 -17.411,-7.1168 -27.211,-6.8926 z m -169.208,69.3587 c -7.267,-0.9016 -15.766,1.3529 -21.962,3.0883 -21.14,5.9288 -42.695,12.1211 -63.223,19.8632 -40.448,15.2528 -78.946,34.0237 -117.415,53.5915 -15.743,8.006 -39.717,17.9601 -48.886,33.8846 -10.063,17.4815 -1.109,52.8103 5.56,70.441 36.404,-16.9934 70.432,-39.7972 106.577,-57.653 24.4,-12.0537 49.47,-22.4586 74.061,-34.0749 24.959,-11.7879 57.95,-26.7802 73.047,-50.9722 5.928,-9.4689 11.43,-29.0868 -0.99,-36.0755 -2.036,-1.1364 -4.321,-1.7908 -6.74,-2.0934 z m -348.919,34.5568 c -14.786,6.895 -26.494,22.8788 -37.933,34.3182 -25.117,25.1137 -49.929,50.5983 -74.601,76.149 -75.533,78.2353 -153.776,154.0291 -230.681,230.9277 -27.096,27.0948 -54.255,54.125 -81.289,81.2848 -10.875,10.9264 -29.19,24.9794 -34.319,39.7374 h 334.185 101.151 l 52.386,-1.8032 -2.84,-52.3853 11.851,-48.7703 -231.221,-5.4226 c 38.206,-54.2417 93.049,-100.6905 137.589,-149.9241 15.145,-16.7338 41.29,-35.2441 50.397,-56.0654 6.779,-15.5148 -2.405,-44.6346 -3.581,-61.3446 -2.036,-29.5854 7.611,-57.5617 8.868,-86.7035 z m 469.657,13.5266 c -13.854,0.062 -29.023,8.6609 -41.548,13.8196 -21.03,8.6667 -53.208,8.0935 -65.169,30.4632 -5.87,10.9642 -4.632,24.4286 -8.437,36.1171 -3.83,11.7076 -11.813,21.2223 -16.269,32.5063 -2.098,5.2682 -0.984,10.0349 5.063,11.3118 11.88,2.495 28.258,-3.4893 39.636,-6.6493 34.386,-9.5592 62.845,-19.0496 82.278,-51.6176 6.583,-11.0369 33.617,-66.1175 4.446,-65.9511 z m 97.542,12.7932 c -51.381,0 -63.643,38.8086 -94.239,71.1476 -9.513,10.0574 -24.037,14.1615 -32.976,24.401 -4.446,5.0889 -5.187,11.9891 2.658,13.3387 44.827,7.6532 101.481,-12.5007 133.401,-43.3941 23.497,-22.7383 37.37,-65.4932 -8.873,-65.4932 z m -249.239,31.9045 c -17.153,1.5752 -36.495,13.9497 -50.617,20.7868 -31.8,15.3953 -62.567,32.5437 -93.928,48.7713 -17.941,9.2824 -40.769,18.2096 -55.67,32.0192 -14.207,13.1752 -15.933,33.0461 -7.558,49.7312 33.144,-7.5978 66.02,-21.3509 97.548,-33.9587 22.492,-8.997 44.817,-17.9845 66.832,-28.1322 23.845,-10.9919 52.71,-25.0314 64.781,-49.9004 6.856,-14.1313 5.187,-37.1024 -14.198,-39.2823 -2.347,-0.2486 -4.757,-0.2486 -7.19,-0.048 z m 75.318,83.6717 c -7.955,0 -16.374,1.4332 -21.169,2.1183 -16.335,2.3348 -40.008,5.9169 -51.625,18.9372 -5.435,6.1143 -7.51,14.7409 -12.549,21.2921 -6.114,7.9931 -13.792,13.7135 -17.109,23.4807 35.132,13.2551 78.3,8.4248 104.608,-19.8771 6.946,-7.4796 22.688,-28.0829 16.297,-39.2259 -2.964,-5.2127 -10.494,-6.7066 -18.453,-6.7262 z m 102.806,4.0267 c -7.778,-0.048 -16.12,1.6985 -21.006,2.7115 -35.223,7.2975 -59.662,36.0722 -70.451,69.9276 29.72,8.7848 72.803,-5.3977 93.766,-27.1636 7.873,-8.1766 20.666,-25.0391 15.331,-37.4561 -2.658,-6.145 -9.858,-7.975 -17.64,-8.0199 z m -216.101,15.794 c -18.314,-0.7104 -35.089,16.0689 -50.573,23.4563 -27.068,12.9151 -56.851,20.3288 -84.898,30.8178 -9.552,3.5697 -21.953,5.546 -30.209,11.7406 -11.377,8.5333 -4.202,31.9686 8.558,34.845 14.48,3.2608 30.753,-0.4943 45.128,-2.9152 37.088,-6.1779 73.898,-16.7998 102.94,-41.8915 9.226,-7.9697 39.702,-54.8717 9.054,-56.0549 z m 52.921,68.9223 c -7.921,-0.4303 -16.034,0.3107 -22.21,1.0928 -30.266,3.9836 -36.596,35.7839 -45.153,60.8952 -6.831,20.0415 -10.46,40.4306 18.061,37.623 25.241,-2.483 57.482,-15.9704 71.809,-37.623 9.8,-14.8135 16.416,-44.6059 -1.42,-56.4627 -5.435,-3.594 -13.151,-5.1133 -21.068,-5.521 z m 64.375,6.5885 c -4.508,0.4303 -8.634,2.0748 -11.765,5.3299 -13.682,14.2302 -5.249,39.5395 -17.879,55.486 -10.503,13.2316 -27.852,23.561 -29.84,41.5445 40.988,-0.1243 100.009,-32.3773 91.715,-81.2815 -2.099,-12.2554 -18.745,-22.3084 -32.231,-21.0784 z m -175.093,17.9797 c -24.414,2.9955 -48.972,10.414 -72.263,18.1484 -9.57,3.1805 -21.01,5.4781 -28.511,12.6556 -11.841,11.328 -15.919,48.9453 0,58.9448 7.984,4.9407 26.437,2.4146 35.51,1.5503 28.468,-2.7115 62.09,-9.1978 79.864,-34.017 15.938,-22.2535 22.187,-61.8275 -14.829,-57.2826 z m 48.011,85.3038 c -12.458,0.9078 -24.462,4.7122 -30.581,12.1082 -6.707,8.1026 -7.544,19.77 -13.663,28.5127 -8.638,12.3357 -20.972,23.0485 -28.301,36.1286 -8.547,15.2562 -8.327,44.7909 -4.383,61.4129 25.796,-6.5044 38.569,-28.7636 32.512,-54.19 28.817,-5.3666 60.761,-8.8369 79.62,-34.3206 10.365,-14.0022 17.22,-34.159 -1.974,-44.3569 -7.912,-4.2059 -20.814,-6.2013 -33.268,-5.293 z m -85.944,14.0448 c -17.54,2.0752 -56.043,0.642 -67.378,15.9336 -11.655,15.7266 -1.419,38.7024 0,55.8015 1.545,16.0799 -8.973,32.613 -4.508,48.5805 4.202,15.1946 37.384,17.7106 50.01,16.1139 35.347,-4.4718 8.509,-50.2719 14.045,-69.9515 1.974,-7.0757 11.081,-11.6058 15.871,-16.7282 17.101,-18.2713 29.702,-54.2402 -8.236,-49.7498 z" /></g></svg>
